 <svg
      version="1.1"
      id="Layer_1"
      xmlns="http://www.w3.org/2000/svg"
      x="0px"
      y="0px"
      width="100%"
      viewBox="0 0 569 560"
      enableBackground="new 0 0 569 560"
    >
      <path
        fill="#f7b543"
        opacity="1.000000"
        stroke="none"
        d="
M324.000000,561.000000 
	C216.023788,561.000000 108.547569,561.000000 1.035677,561.000000 
	C1.035677,374.398438 1.035677,187.796844 1.035677,1.097628 
	C190.559570,1.097628 380.119202,1.097628 569.839417,1.097628 
	C569.839417,187.666550 569.839417,374.333252 569.839417,561.000000 
	C488.130127,561.000000 406.315063,561.000000 324.000000,561.000000 
M477.148804,270.513123 
	C476.851349,270.353088 476.553864,270.193024 476.108124,269.291260 
	C474.436462,260.463196 467.326691,258.365173 459.785156,255.824188 
	C457.689728,248.691208 452.193542,247.228271 445.575012,247.900116 
	C440.291382,227.158905 431.981628,208.235916 420.357880,190.759201 
	C369.975677,115.007896 270.898682,93.375755 195.690170,142.079239 
	C158.154739,166.386429 134.154221,200.836334 122.081429,243.720490 
	C121.311417,246.455734 120.675232,248.171478 117.299454,247.961395 
	C111.663857,247.610687 108.293121,250.677841 106.147179,256.174713 
	C98.707497,258.483704 91.673363,261.263336 89.274803,270.311310 
	C82.885597,273.948425 78.992065,279.706848 76.300362,286.264099 
	C69.729004,302.272552 69.217720,318.598969 74.633614,335.016388 
	C77.441154,343.527008 81.466225,351.292175 90.248253,356.355011 
	C92.179291,365.242004 99.408974,367.520264 106.977119,370.255188 
	C108.071396,374.017975 110.320908,377.388855 114.250618,377.439240 
	C124.408768,377.569611 134.576401,376.960449 144.858002,377.637085 
	C144.858002,399.561523 144.858002,421.485992 144.858002,443.923584 
	C147.465912,443.923584 149.421631,443.923584 151.377350,443.923584 
	C190.015015,443.923370 228.652817,443.883972 267.289948,444.026428 
	C269.461060,444.034424 271.918823,445.130432 273.737030,446.428802 
	C278.194580,449.611969 288.346649,449.604584 292.794495,446.410645 
	C294.591125,445.120514 297.028320,444.034180 299.178223,444.026367 
	C337.981903,443.885986 376.786255,443.924957 415.590454,443.925598 
	C417.383545,443.925629 419.176636,443.925598 421.833801,443.925598 
	C421.833801,421.183167 421.833801,398.922028 422.667389,376.897369 
	C430.711487,377.226959 438.766998,377.389648 446.796173,377.937836 
	C453.462402,378.392975 457.974640,375.961945 460.815552,369.295563 
	C468.621582,367.522156 474.702698,363.739044 477.602692,355.164062 
	C487.043793,349.242737 491.061401,339.870697 493.413666,329.641113 
	C497.220245,313.087158 496.316376,296.834320 487.810699,281.842834 
	C485.371735,277.544067 480.692566,274.516357 477.000702,270.989075 
	C477.000702,270.989075 477.084015,271.028717 477.148804,270.513123 
z"
      />
      <path
        fill="#282626"
        opacity="1.000000"
        stroke="none"
        d="
M144.740250,376.646606 
	C134.576401,376.960449 124.408768,377.569611 114.250618,377.439240 
	C110.320908,377.388855 108.071396,374.017975 106.942123,369.420746 
	C106.885056,331.059998 106.862991,293.533661 106.840927,256.007355 
	C108.293121,250.677841 111.663857,247.610687 117.299454,247.961395 
	C120.675232,248.171478 121.311417,246.455734 122.081429,243.720490 
	C134.154221,200.836334 158.154739,166.386429 195.690170,142.079239 
	C270.898682,93.375755 369.975677,115.007896 420.357880,190.759201 
	C431.981628,208.235916 440.291382,227.158905 445.575012,247.900116 
	C452.193542,247.228271 457.689728,248.691208 459.864532,256.610413 
	C459.898560,276.159424 459.804840,294.922211 459.821564,313.684937 
	C459.838165,332.278961 459.966095,350.872894 460.045166,369.466888 
	C457.974640,375.961945 453.462402,378.392975 446.796173,377.937836 
	C438.766998,377.389648 430.711487,377.226959 422.028900,376.539703 
	C420.187622,372.886353 417.963928,369.598206 417.939453,366.293762 
	C417.684235,331.837006 417.787903,297.377655 417.768280,262.919006 
	C417.767059,260.764618 417.566650,258.610382 417.607178,256.068329 
	C418.829193,250.243439 422.859283,248.308823 427.721405,247.494171 
	C414.296417,191.427307 360.551636,134.466324 286.522278,132.857941 
	C209.898514,131.193146 153.113327,188.737167 138.681152,247.578430 
	C144.206131,248.113083 147.996872,250.814255 149.131683,256.903595 
	C149.032486,293.558075 148.965042,329.778900 149.035614,365.999420 
	C149.043945,370.277130 148.005600,373.835114 144.740250,376.646606 
M290.747467,122.833649 
	C199.340714,118.216660 138.660721,192.014313 129.176910,247.891861 
	C130.800568,246.847153 132.378235,245.531891 132.869568,243.891281 
	C137.534988,228.313049 144.158508,213.665573 152.819870,199.892334 
	C209.974152,109.006012 335.588409,101.553947 403.020660,185.056915 
	C417.243256,202.669113 427.316864,222.409409 433.697174,244.076096 
	C434.388306,246.423157 434.832123,248.792770 438.540894,247.344635 
	C438.224426,245.742798 438.031250,244.128571 437.582245,242.588959 
	C431.644684,222.229492 422.578644,203.373962 409.541290,186.627213 
	C379.612427,148.183090 340.779877,125.990524 290.747467,122.833649 
z"
      />
      <path
        fill="#2CA7AA"
        opacity="1.000000"
        stroke="none"
        d="
M417.458923,256.456055 
	C417.566650,258.610382 417.767059,260.764618 417.768280,262.919006 
	C417.787903,297.377655 417.684235,331.837006 417.939453,366.293762 
	C417.963928,369.598206 420.187622,372.886353 421.612122,376.421448 
	C421.833801,398.922028 421.833801,421.183167 421.833801,443.925598 
	C419.176636,443.925598 417.383545,443.925629 415.590454,443.925598 
	C376.786255,443.924957 337.981903,443.885986 299.178223,444.026367 
	C297.028320,444.034180 294.591125,445.120514 292.794495,446.410645 
	C288.346649,449.604584 278.194580,449.611969 273.737030,446.428802 
	C271.918823,445.130432 269.461060,444.034424 267.289948,444.026428 
	C228.652817,443.883972 190.015015,443.923370 151.377350,443.923584 
	C149.421631,443.923584 147.465912,443.923584 144.858002,443.923584 
	C144.858002,421.485992 144.858002,399.561523 144.799133,377.141846 
	C148.005600,373.835114 149.043945,370.277130 149.035614,365.999420 
	C148.965042,329.778900 149.032486,293.558075 149.564590,256.887817 
	C152.116638,256.443390 154.162613,256.448456 156.310699,256.819672 
	C156.548172,259.336029 156.801041,261.486206 156.801743,263.636444 
	C156.819962,318.916931 156.796997,374.197479 156.862961,429.477875 
	C156.865585,431.675781 157.670090,433.872742 158.453156,436.257507 
	C160.125015,436.566193 161.444641,436.792786 162.764359,436.793396 
	C200.904160,436.810944 239.043976,436.813080 277.183746,436.777557 
	C278.643921,436.776184 280.103699,436.377319 281.965393,436.103455 
	C282.632294,435.987915 282.897430,435.932678 283.299713,435.879150 
	C283.436859,435.880890 283.710541,435.862244 284.083496,435.925476 
	C284.706116,436.024567 284.955750,436.060394 285.547180,436.282684 
	C287.044373,436.579437 288.199677,436.785553 289.355103,436.786133 
	C327.687408,436.804993 366.019684,436.811798 404.351959,436.777100 
	C405.809723,436.775787 407.267059,436.345367 409.038391,435.819519 
	C409.549347,433.392639 409.916748,431.261292 409.918762,429.129578 
	C409.973755,371.525452 409.991333,313.921265 410.437897,256.351654 
	C413.060028,256.409485 415.259460,256.432770 417.458923,256.456055 
z"
      />
      <path
        fill="#6E6F72"
        opacity="1.000000"
        stroke="none"
        d="
M106.494049,256.091034 
	C106.862991,293.533661 106.885056,331.059998 106.846657,369.100403 
	C99.408974,367.520264 92.179291,365.242004 90.069359,355.626465 
	C88.573021,342.025116 86.139664,329.144775 86.226318,316.281403 
	C86.329933,300.901184 88.588341,285.535522 89.913429,270.163544 
	C91.673363,261.263336 98.707497,258.483704 106.494049,256.091034 
z"
      />
      <path
        fill="#6E6F72"
        opacity="1.000000"
        stroke="none"
        d="
M460.430359,369.381226 
	C459.966095,350.872894 459.838165,332.278961 459.821564,313.684937 
	C459.804840,294.922211 459.898560,276.159424 460.035583,256.887390 
	C467.326691,258.365173 474.436462,260.463196 476.307373,269.836548 
	C476.680969,270.613647 476.873444,270.829254 477.084015,271.028717 
	C477.084015,271.028717 477.000702,270.989075 476.988098,271.371033 
	C480.591095,291.631775 481.895142,311.637299 479.927094,331.776947 
	C479.153290,339.695068 477.941650,347.570374 476.929413,355.465179 
	C474.702698,363.739044 468.621582,367.522156 460.430359,369.381226 
z"
      />
      <path
        fill="#292725"
        opacity="1.000000"
        stroke="none"
        d="
M89.594116,270.237427 
	C88.588341,285.535522 86.329933,300.901184 86.226318,316.281403 
	C86.139664,329.144775 88.573021,342.025116 89.920334,355.282898 
	C81.466225,351.292175 77.441154,343.527008 74.633614,335.016388 
	C69.217720,318.598969 69.729004,302.272552 76.300362,286.264099 
	C78.992065,279.706848 82.885597,273.948425 89.594116,270.237427 
z"
      />
      <path
        fill="#282625"
        opacity="1.000000"
        stroke="none"
        d="
M477.266052,355.314636 
	C477.941650,347.570374 479.153290,339.695068 479.927094,331.776947 
	C481.895142,311.637299 480.591095,291.631775 477.008057,271.329407 
	C480.692566,274.516357 485.371735,277.544067 487.810699,281.842834 
	C496.316376,296.834320 497.220245,313.087158 493.413666,329.641113 
	C491.061401,339.870697 487.043793,349.242737 477.266052,355.314636 
z"
      />
      <path
        fill="#282625"
        opacity="1.000000"
        stroke="none"
        d="
M477.116394,270.770935 
	C476.873444,270.829254 476.680969,270.613647 476.381531,270.207397 
	C476.553864,270.193024 476.851349,270.353088 477.116394,270.770935 
z"
      />
      <path
        fill='#f7b543'
        opacity="1.000000"
        stroke="none"
        d="
M156.208572,256.453522 
	C154.162613,256.448456 152.116638,256.443390 149.637756,256.454071 
	C147.996872,250.814255 144.206131,248.113083 138.681152,247.578430 
	C153.113327,188.737167 209.898514,131.193146 286.522278,132.857941 
	C360.551636,134.466324 414.296417,191.427307 427.721405,247.494171 
	C422.859283,248.308823 418.829193,250.243439 417.607178,256.068329 
	C415.259460,256.432770 413.060028,256.409485 410.449097,255.860168 
	C410.037659,249.101135 410.037659,242.868149 410.037659,236.020798 
	C404.939789,236.020798 400.518707,236.020798 396.049011,235.554489 
	C396.000366,231.018936 396.000366,226.949692 396.000366,222.696198 
	C390.556671,222.696198 385.817413,222.696198 380.986755,222.259628 
	C380.895294,217.738571 380.895294,213.654099 380.895294,209.136292 
	C359.983551,209.482834 340.173126,210.836731 321.110565,217.415436 
	C303.880493,223.361740 289.324310,232.516022 282.958252,250.590988 
	C279.170776,237.540771 270.215942,229.421722 259.081665,223.347168 
	C245.878006,216.143616 231.484314,212.751938 216.690643,211.103333 
	C206.684570,209.988266 196.604950,209.533234 185.824432,208.728180 
	C185.824432,214.030289 185.824432,218.317642 185.408524,222.595856 
	C180.395416,222.586716 175.798203,222.586716 170.595551,222.586716 
	C170.595551,227.336670 170.595551,231.628738 170.157959,235.965576 
	C166.575272,236.020309 163.420609,236.187134 160.287827,235.995834 
	C157.191071,235.806778 156.235031,237.145645 156.289810,240.067841 
	C156.392166,245.527313 156.249374,250.991364 156.208572,256.453522 
z"
      />
      <path
        fill="#7C7D7F"
        opacity="1.000000"
        stroke="none"
        d="
M291.215027,122.858505 
	C340.779877,125.990524 379.612427,148.183090 409.541290,186.627213 
	C422.578644,203.373962 431.644684,222.229492 437.582245,242.588959 
	C438.031250,244.128571 438.224426,245.742798 438.540894,247.344635 
	C434.832123,248.792770 434.388306,246.423157 433.697174,244.076096 
	C427.316864,222.409409 417.243256,202.669113 403.020660,185.056915 
	C335.588409,101.553947 209.974152,109.006012 152.819870,199.892334 
	C144.158508,213.665573 137.534988,228.313049 132.869568,243.891281 
	C132.378235,245.531891 130.800568,246.847153 129.176910,247.891861 
	C138.660721,192.014313 199.340714,118.216660 291.215027,122.858505 
z"
      />
      <path
        fill="#E6E7E6"
        opacity="1.000000"
        stroke="none"
        d="
M283.016907,250.950912 
	C289.324310,232.516022 303.880493,223.361740 321.110565,217.415436 
	C340.173126,210.836731 359.983551,209.482834 380.895294,209.136292 
	C380.895294,213.654099 380.895294,217.738571 380.961975,222.750702 
	C381.008179,226.177368 380.970032,228.676361 380.969879,231.175369 
	C380.966461,287.158417 380.969147,343.141479 380.964691,399.124512 
	C380.964142,405.933350 380.930542,405.625854 374.024323,406.026794 
	C360.266541,406.825592 346.481598,407.572083 332.799835,409.141785 
	C320.340149,410.571259 308.305756,414.079742 297.306396,420.374084 
	C291.348053,423.783722 285.621399,427.567719 283.918182,435.211487 
	C283.836792,435.424347 283.710541,435.862244 283.710541,435.862244 
	C283.710541,435.862244 283.436859,435.880890 283.140015,435.659729 
	C282.514038,435.010956 282.184875,434.583374 281.902771,433.795837 
	C281.974060,432.954224 281.998322,432.472534 282.244690,431.643066 
	C282.644958,429.499481 282.970673,427.704254 282.977600,425.907776 
	C283.028107,412.827759 283.014465,399.747437 283.405243,386.534607 
	C284.786499,386.336823 285.784576,386.284393 286.780487,386.204559 
	C309.086884,384.416504 325.499634,373.512634 335.052979,353.401245 
	C344.541473,333.426270 342.583893,313.783173 329.911377,295.715637 
	C318.625580,279.625214 302.524414,272.027649 282.991821,271.044861 
	C282.999207,264.056244 283.008057,257.503571 283.016907,250.950912 
z"
      />
      <path
        fill="#98999D"
        opacity="1.000000"
        stroke="none"
        d="
M281.855713,434.155762 
	C282.184875,434.583374 282.514038,435.010956 283.002869,435.658020 
	C282.897430,435.932678 282.632294,435.987915 281.634460,435.982422 
	C280.283142,435.682037 279.682129,435.371887 279.043457,435.212982 
	C252.406784,428.584442 225.324677,425.874512 198.035675,428.393066 
	C184.602356,429.632843 171.405075,433.430145 158.100983,436.070129 
	C157.670090,433.872742 156.865585,431.675781 156.862961,429.477875 
	C156.796997,374.197479 156.819962,318.916931 156.801743,263.636444 
	C156.801041,261.486206 156.548172,259.336029 156.310699,256.819672 
	C156.249374,250.991364 156.392166,245.527313 156.289810,240.067841 
	C156.235031,237.145645 157.191071,235.806778 160.287827,235.995834 
	C163.420609,236.187134 166.575272,236.020309 170.236740,236.427094 
	C170.792328,239.338730 170.865448,241.833603 170.865738,244.328476 
	C170.872345,300.403625 170.931274,356.478973 170.767685,412.553619 
	C170.753067,417.566101 172.140198,419.005096 177.207535,419.104095 
	C194.311554,419.438263 211.452576,419.785309 228.487793,421.217499 
	C246.853409,422.761566 265.254547,424.967651 281.855713,434.155762 
z"
      />
      <path
        fill="#96989D"
        opacity="1.000000"
        stroke="none"
        d="
M284.083496,435.925476 
	C283.710541,435.862244 283.836792,435.424347 284.228455,435.065247 
	C290.558563,432.166260 296.288971,428.818054 302.471527,427.226532 
	C329.099976,420.372070 356.364502,419.085999 383.717590,418.995636 
	C395.988251,418.955109 395.981903,418.962952 395.989349,406.515198 
	C396.023315,349.683746 396.061188,292.852264 396.097656,236.020798 
	C400.518707,236.020798 404.939789,236.020798 410.037659,236.020798 
	C410.037659,242.868149 410.037659,249.101135 410.026428,255.825623 
	C409.991333,313.921265 409.973755,371.525452 409.918762,429.129578 
	C409.916748,431.261292 409.549347,433.392639 408.701050,435.699097 
	C407.432007,435.632538 406.827942,435.344543 406.194214,435.156311 
	C381.171082,427.724976 355.528290,425.991669 329.753998,428.469177 
	C314.798248,429.906738 300.048065,433.482605 285.205383,436.096222 
	C284.955750,436.060394 284.706116,436.024567 284.083496,435.925476 
z"
      />
      <path
        fill="#196369"
        opacity="1.000000"
        stroke="none"
        d="
M285.547180,436.282684 
	C300.048065,433.482605 314.798248,429.906738 329.753998,428.469177 
	C355.528290,425.991669 381.171082,427.724976 406.194214,435.156311 
	C406.827942,435.344543 407.432007,435.632538 408.387268,435.994446 
	C407.267059,436.345367 405.809723,436.775787 404.351959,436.777100 
	C366.019684,436.811798 327.687408,436.804993 289.355103,436.786133 
	C288.199677,436.785553 287.044373,436.579437 285.547180,436.282684 
z"
      />
      <path
        fill="#196369"
        opacity="1.000000"
        stroke="none"
        d="
M158.453156,436.257507 
	C171.405075,433.430145 184.602356,429.632843 198.035675,428.393066 
	C225.324677,425.874512 252.406784,428.584442 279.043457,435.212982 
	C279.682129,435.371887 280.283142,435.682037 281.232697,436.042664 
	C280.103699,436.377319 278.643921,436.776184 277.183746,436.777557 
	C239.043976,436.813080 200.904160,436.810944 162.764359,436.793396 
	C161.444641,436.792786 160.125015,436.566193 158.453156,436.257507 
z"
      />
      <path
        fill="#EFF0EF"
        opacity="1.000000"
        stroke="none"
        d="
M282.958252,250.590988 
	C283.008057,257.503571 282.999207,264.056244 282.547119,271.145325 
	C248.770615,271.754791 219.373169,302.956909 227.121185,341.098389 
	C232.029373,365.260132 251.758408,382.683258 278.300934,386.405334 
	C278.982147,386.577393 279.387115,386.618591 280.087891,386.498169 
	C281.262817,386.446777 282.141937,386.556976 283.021057,386.667236 
	C283.014465,399.747437 283.028107,412.827759 282.977600,425.907776 
	C282.970673,427.704254 282.644958,429.499481 282.011353,431.403809 
	C276.337585,423.081146 268.045258,418.833374 259.206879,415.620178 
	C237.624283,407.773834 215.107895,405.869476 192.374130,406.048798 
	C187.317825,406.088684 185.874542,404.624603 185.894226,399.556244 
	C186.076767,352.568359 186.014160,305.579498 185.994415,258.590912 
	C185.989365,246.595596 185.883804,234.600296 185.824432,222.604996 
	C185.824432,218.317642 185.824432,214.030289 185.824432,208.728180 
	C196.604950,209.533234 206.684570,209.988266 216.690643,211.103333 
	C231.484314,212.751938 245.878006,216.143616 259.081665,223.347168 
	C270.215942,229.421722 279.170776,237.540771 282.958252,250.590988 
z"
      />
      <path
        fill="#C8C9CA"
        opacity="1.000000"
        stroke="none"
        d="
M396.049011,235.554489 
	C396.061188,292.852264 396.023315,349.683746 395.989349,406.515198 
	C395.981903,418.962952 395.988251,418.955109 383.717590,418.995636 
	C356.364502,419.085999 329.099976,420.372070 302.471527,427.226532 
	C296.288971,428.818054 290.558563,432.166260 284.309845,434.852417 
	C285.621399,427.567719 291.348053,423.783722 297.306396,420.374084 
	C308.305756,414.079742 320.340149,410.571259 332.799835,409.141785 
	C346.481598,407.572083 360.266541,406.825592 374.024323,406.026794 
	C380.930542,405.625854 380.964142,405.933350 380.964691,399.124512 
	C380.969147,343.141479 380.966461,287.158417 380.969879,231.175369 
	C380.970032,228.676361 381.008179,226.177368 381.053406,223.187286 
	C385.817413,222.696198 390.556671,222.696198 396.000366,222.696198 
	C396.000366,226.949692 396.000366,231.018936 396.049011,235.554489 
z"
      />
      <path
        fill="#C8C9CB"
        opacity="1.000000"
        stroke="none"
        d="
M185.408524,222.595856 
	C185.883804,234.600296 185.989365,246.595596 185.994415,258.590912 
	C186.014160,305.579498 186.076767,352.568359 185.894226,399.556244 
	C185.874542,404.624603 187.317825,406.088684 192.374130,406.048798 
	C215.107895,405.869476 237.624283,407.773834 259.206879,415.620178 
	C268.045258,418.833374 276.337585,423.081146 281.789185,431.751587 
	C281.998322,432.472534 281.974060,432.954224 281.902771,433.795837 
	C265.254547,424.967651 246.853409,422.761566 228.487793,421.217499 
	C211.452576,419.785309 194.311554,419.438263 177.207535,419.104095 
	C172.140198,419.005096 170.753067,417.566101 170.767685,412.553619 
	C170.931274,356.478973 170.872345,300.403625 170.865738,244.328476 
	C170.865448,241.833603 170.792328,239.338730 170.674347,236.382339 
	C170.595551,231.628738 170.595551,227.336670 170.595551,222.586716 
	C175.798203,222.586716 180.395416,222.586716 185.408524,222.595856 
z"
      />
      <path
        fill="#E62B27"
        opacity="1.000000"
        stroke="none"
        d="
M283.405243,386.534607 
	C282.141937,386.556976 281.262817,386.446777 279.837646,386.293060 
	C278.869293,386.257904 278.446991,386.266205 278.024689,386.274536 
	C251.758408,382.683258 232.029373,365.260132 227.121185,341.098389 
	C219.373169,302.956909 248.770615,271.754791 282.548584,271.581299 
	C302.524414,272.027649 318.625580,279.625214 329.911377,295.715637 
	C342.583893,313.783173 344.541473,333.426270 335.052979,353.401245 
	C325.499634,373.512634 309.086884,384.416504 286.780487,386.204559 
	C285.784576,386.284393 284.786499,386.336823 283.405243,386.534607 
M282.595398,305.396118 
	C275.558563,301.806244 268.521729,298.216370 260.953735,294.355499 
	C260.953735,317.701935 260.953735,340.190125 260.953735,363.683990 
	C268.748993,358.873871 275.887848,354.468781 283.713928,349.926453 
	C296.692078,342.188354 309.670197,334.450287 323.525391,326.189240 
	C309.334259,319.089661 296.181580,312.509583 282.595398,305.396118 
z"
      />
      <path
        fill="#E6E7E6"
        opacity="1.000000"
        stroke="none"
        d="
M278.300934,386.405365 
	C278.446991,386.266205 278.869293,386.257904 279.541840,386.454681 
	C279.387115,386.618591 278.982147,386.577393 278.300934,386.405365 
z"
      />
      <path
        fill="#EFF0EF"
        opacity="1.000000"
        stroke="none"
        d="
M283.026672,350.063660 
	C275.887848,354.468781 268.748993,358.873871 260.953735,363.683990 
	C260.953735,340.190125 260.953735,317.701935 260.953735,294.355499 
	C268.521729,298.216370 275.558563,301.806244 282.806335,306.135925 
	C283.020447,321.271729 283.023560,335.667694 283.026672,350.063660 
z"
      />
      <path
        fill="#E6E6E4"
        opacity="1.000000"
        stroke="none"
        d="
M283.370300,349.995056 
	C283.023560,335.667694 283.020447,321.271729 283.023102,306.402649 
	C296.181580,312.509583 309.334259,319.089661 323.525391,326.189240 
	C309.670197,334.450287 296.692078,342.188354 283.370300,349.995056 
z"
      />
    </svg>